<?xml version="1.0" encoding="UTF-8" standalone="no"?><!DOCTYPE svg PUBLIC "-//W3C//DTD SVG 1.1//EN" "http://www.w3.org/Graphics/SVG/1.1/DTD/svg11.dtd"><svg width="100%" height="100%" viewBox="0 0 400 430" version="1.1" xmlns="http://www.w3.org/2000/svg" xmlns:xlink="http://www.w3.org/1999/xlink" xml:space="preserve" xmlns:serif="http://www.serif.com/" style="fill-rule:evenodd;clip-rule:evenodd;stroke-linecap:round;stroke-linejoin:round;stroke-miterlimit:1.5;"><g id="cat"><path d="M266.23,203.607c21.024,-13.232 36.61,-37.079 22.185,-72.145c-3.452,-8.392 3.265,-14.583 10.738,-2.439c7.473,12.144 29.978,87.927 -43.79,108.4c-6.026,1.672 2.894,-28.797 10.867,-33.816Z" style="fill:#e3d3d7;"/><g><path d="M243.289,153.883c0,0 84.924,54.155 21.761,129.015c-5.8,6.875 -148.229,0 -148.229,0c0,0 -33.942,-76.262 8.163,-116.005c42.106,-39.743 118.305,-13.01 118.305,-13.01Z" style="fill:#efe6e1;"/><path d="M243.289,153.883c0,0 12.698,8.355 22.566,20.011c1.459,1.723 -8.709,0.232 -9.929,3.001c-0.879,1.997 -10.938,4.151 -14.899,9.626c-4.079,5.637 4.392,5.235 1.571,5.396c-16.281,0.928 -35.098,19.266 -37.28,16.902c-11.174,-12.106 -4.155,-0.023 -13.061,-7.613c-3.116,-2.655 -0.89,14.415 -3.409,12.247c-6.873,-5.914 -11.198,-9.709 -11.198,-9.709c0,0 -16.757,-2.294 -9.71,-9.04c41.823,-40.039 75.349,-40.821 75.349,-40.821Z" style="fill:#e3d3d7;fill-opacity:0.5;"/></g><g id="head"><path d="M89.664,148.637c0,0 55.761,34.669 83.882,30.935c74.591,-9.905 107.287,-61.287 107.287,-61.287l-8.467,-3.936l5.14,-11.508l-8.35,-6.979c0,0 -10.522,-28.017 -14.415,-35.311c-3.893,-7.293 5.279,-45.619 -16.031,-60.151c-6.933,-4.729 -44.82,34.061 -44.82,34.061c0,0 -22.499,-7.932 -46.808,5.47c-2.864,1.579 -53.685,-23.679 -53.685,-23.679c0,0 -9.047,38.865 4.317,63.659c1.019,1.89 -8.437,25.533 -5.657,46.518c0.202,1.523 -7.467,8.783 -7.467,8.783l8.958,4.722l-3.884,8.703Z" style="fill:#efe6e1;"/><g id="shadoew"><path d="M254.741,60.551c-1.162,-2.177 12.635,22.484 -0.371,37.575c-3.655,4.241 4.482,5.95 0.05,10.678c-3.188,3.4 -3.119,1.134 -6.739,4.711c-2.493,2.462 10.158,-0.036 7.503,2.523c-3.752,3.616 -7.599,5.033 -11.855,8.843c-3.686,3.3 9.684,0.523 6.599,4.634c-6.745,8.99 -13.846,20.709 -24.54,28.793c-25.153,19.016 -59.855,22.328 -51.842,21.264c74.591,-9.905 107.287,-61.287 107.287,-61.287l-8.467,-3.936l5.14,-11.508l-8.35,-6.979c0,0 -10.522,-28.017 -14.415,-35.311Z" style="fill:#e6d7d9;"/><path d="M137.45,69.461l9.291,-15.113c0,0 -7.164,12.241 8.033,3.717c15.197,-8.523 -3.771,11.642 2.152,7.832c5.924,-3.81 15.556,-12.609 21.929,-21.635c6.372,-9.026 0.574,29.842 -27.839,36.619c-2.523,0.601 0.03,-10.87 -3.356,-12.879c-3.386,-2.009 -10.21,1.459 -10.21,1.459Z" style="fill:#e6d7d9;"/></g><path d="M101.157,77.73l6.38,-5.165c0,0 2.926,-1.8 -3.708,-5.192c-6.634,-3.392 2.93,-2.845 6.931,-3.355c4.001,-0.511 0.693,-4.745 -4.096,-8.793c-4.789,-4.047 9.477,-0.306 13.127,0.574c3.65,0.88 3.086,-3.036 3.086,-3.036c0,0 -25.008,-31.841 -27.651,-31.918c-2.643,-0.076 -8.043,28.395 5.931,56.885Z" style="fill:#dfb280;stroke:#dfb280;stroke-width:1px;"/><path d="M246.642,59.927l-7.581,-3.146c0,0 -3.317,-0.898 2.084,-6.03c5.401,-5.133 -3.615,-1.898 -7.597,-1.254c-3.982,0.644 -2.009,-4.353 1.436,-9.592c3.446,-5.239 -9.175,2.392 -12.426,4.269c-3.251,1.878 -3.819,-2.036 -3.819,-2.036c0,0 14.96,-37.623 17.473,-38.445c2.513,-0.823 15.759,24.952 10.43,56.234Z" style="fill:#dfb280;stroke:#dfb280;stroke-width:1px;"/><g id="eye"><path d="M133.447,103.282c6.707,2.256 10.369,9.387 8.174,15.913c-2.196,6.527 -9.423,9.995 -16.13,7.739c-6.707,-2.256 -10.369,-9.387 -8.174,-15.914c2.196,-6.526 9.423,-9.994 16.13,-7.738Z" style="fill:#232323;"/><path d="M131.117,103.805c2.527,0.85 3.888,3.592 3.038,6.119c-0.85,2.528 -3.592,3.889 -6.119,3.039c-2.527,-0.85 -3.889,-3.592 -3.038,-6.119c0.85,-2.527 3.592,-3.889 6.119,-3.039Z" style="fill:#fff;"/></g><g id="eye1" serif:id="eye"><path d="M209.614,102.574c6.706,2.256 10.369,9.387 8.173,15.914c-2.195,6.527 -9.422,9.994 -16.129,7.738c-6.707,-2.256 -10.369,-9.386 -8.174,-15.913c2.196,-6.527 9.423,-9.995 16.13,-7.739Z" style="fill:#232323;"/><path d="M207.283,103.098c2.528,0.85 3.889,3.592 3.039,6.119c-0.85,2.527 -3.592,3.889 -6.119,3.039c-2.527,-0.851 -3.889,-3.592 -3.039,-6.12c0.85,-2.527 3.592,-3.888 6.119,-3.038Z" style="fill:#fff;"/></g><g id="face"><path d="M166.271,124.261c3.845,-0.094 7.002,1.286 7.047,3.081c0.044,1.795 -3.042,3.33 -6.887,3.424c-3.845,0.095 -7.003,-1.285 -7.047,-3.08c-0.044,-1.795 3.041,-3.33 6.887,-3.425Z" style="fill:#e3a191;stroke:#e3a191;stroke-width:1.69px;"/><g><path d="M145.187,140.337c0,0 4.772,8.655 11.783,8.139c7.713,-0.568 10.135,-9.764 10.135,-9.764" style="fill:none;stroke:#b4acae;stroke-width:1.69px;"/><path d="M167.117,138.956c0,0 4.772,8.656 11.783,8.139c7.713,-0.568 10.135,-9.764 10.135,-9.764" style="fill:none;stroke:#b4acae;stroke-width:1.69px;"/></g></g></g></g><g id="box"><ellipse cx="196.436" cy="406.628" rx="196.436" ry="18.739" style="fill:#dfb280;fill-opacity:0.38;"/><path d="M48.387,405.422l-3.357,-206.434l130.179,0l0,213.01l-126.822,-6.576Z" style="fill:#c27d31;stroke:#c27d31;stroke-width:1px;"/><path d="M175.209,411.998l0,-213.01l178.73,0l0,207.64l-178.73,5.37Z" style="fill:#d49754;stroke:#d49754;stroke-width:1px;"/><path d="M17.758,281.226l27.272,-82.238l310.07,0l28.951,80.14l-179.58,0l-29.262,-80.14l-30.738,85.175l-126.713,-2.937Z" style="fill:#dfb280;stroke:#dfb280;stroke-width:1px;"/></g></svg>