<?xml version="1.0" encoding="UTF-8" standalone="no"?>
<!DOCTYPE svg PUBLIC "-//W3C//DTD SVG 1.1//EN" "http://www.w3.org/Graphics/SVG/1.1/DTD/svg11.dtd">
<svg width="100%" height="100%" viewBox="0 0 500 200" version="1.1" xmlns="http://www.w3.org/2000/svg" xmlns:xlink="http://www.w3.org/1999/xlink" xml:space="preserve" xmlns:serif="http://www.serif.com/" style="fill-rule:evenodd;clip-rule:evenodd;stroke-linejoin:round;stroke-miterlimit:2;">
    <g id="cloud" transform="matrix(1,0,0,1,-987.834,-1004.13)">
        <path d="M993.749,1153.69C993.749,1153.69 1118.63,1166.16 1199.65,1164.08C1280.66,1162 1381.41,1165.12 1422.96,1163.04C1464.51,1160.96 1496.71,1177.58 1474.9,1156.81C1453.08,1136.04 1444.77,1152.11 1413.61,1112.91C1382.45,1073.72 1368.95,1051.9 1344.02,1051.9C1319.09,1051.9 1298.32,1059.17 1285.86,1080.99C1273.39,1102.8 1316.36,1009.64 1196.53,1017.63C1149.79,1020.74 1142.52,1102.8 1126.94,1129.81C1111.36,1156.81 1102.01,1116.3 1046.96,1124.61C991.909,1132.92 993.749,1153.69 993.749,1153.69Z" style="fill:rgb(251,248,232);"/>
        <path d="M1007.09,1153.4C991.639,1151.88 1031.38,1133.96 1059.42,1135C1087.47,1136.04 1115.3,1158.53 1140.78,1136.87C1166.55,1114.98 1164.11,1045.73 1194.41,1031.71C1220.57,1019.61 1273.67,1031.34 1274.71,1062.19C1275.75,1093.05 1264.64,1097.3 1287.49,1095.49C1310.34,1093.68 1304.17,1066.43 1335.33,1063.01C1366.49,1059.59 1393.25,1112.94 1410.91,1132.68C1428.57,1152.41 1402.27,1163.03 1402.27,1163.03C1402.27,1163.03 1201.59,1172.54 1007.09,1153.4Z" style="fill:rgb(255,238,210);"/>
    </g>
</svg>
