<?xml version="1.0" encoding="UTF-8" standalone="no"?>
<!DOCTYPE svg PUBLIC "-//W3C//DTD SVG 1.1//EN" "http://www.w3.org/Graphics/SVG/1.1/DTD/svg11.dtd">
<svg width="100%" height="100%" viewBox="0 0 600 600" version="1.1" xmlns="http://www.w3.org/2000/svg" xmlns:xlink="http://www.w3.org/1999/xlink" xml:space="preserve" xmlns:serif="http://www.serif.com/" style="fill-rule:evenodd;clip-rule:evenodd;stroke-linecap:round;stroke-linejoin:round;stroke-miterlimit:1.5;">
    <g id="ball" transform="matrix(2.02337,0,0,2.02337,-279.726,-177.183)">
        <g transform="matrix(0.838738,-0.541024,0.541024,0.838738,-37.7908,304.797)">
            <path d="M418.392,179.19C418.392,179.19 429.992,179.62 430.637,169.523C431.281,159.427 417.759,166.221 417.759,166.221C417.759,166.221 305.167,326.339 212.744,118.38C212.744,118.38 208.448,107.778 200.069,111.86C191.691,115.942 195.988,124.964 195.988,124.964C289.661,338.573 418.392,179.19 418.392,179.19Z" style="fill:rgb(223,178,128);stroke:white;stroke-width:0.84px;"/>
        </g>
        <g transform="matrix(1,0,0,1,16.2233,5.68434e-14)">
            <g transform="matrix(0.887034,0.461705,-0.461705,0.887034,138.458,-101.454)">
                <g transform="matrix(1,0,0,1,-32.6534,25.2345)">
                    <path d="M369.725,293.191C369.725,293.191 381.326,293.62 381.97,283.523C382.615,273.427 371.444,271.493 371.444,271.493C371.444,271.493 264.504,267.441 224.718,154.497C224.718,154.497 220.422,143.895 212.044,147.977C203.666,152.059 207.962,161.081 207.962,161.081C242.635,283.188 369.725,293.191 369.725,293.191Z" style="fill:rgb(223,178,128);stroke:white;stroke-width:0.84px;"/>
                </g>
                <g transform="matrix(1,0,0,1,-2.06231,1.89047)">
                    <path d="M368.694,285.411C368.694,285.411 380.295,285.841 380.939,275.744C381.583,265.647 370.413,263.714 370.413,263.714C370.413,263.714 263.473,264.519 223.687,151.575C223.687,151.575 219.391,140.974 211.013,145.055C202.634,149.137 206.931,158.16 206.931,158.16C241.604,280.266 368.694,285.411 368.694,285.411Z" style="fill:rgb(223,178,128);stroke:white;stroke-width:0.84px;"/>
                </g>
                <g transform="matrix(1,0,0,1,-19.2483,14.5861)">
                    <path d="M374.881,291.3C374.881,291.3 386.481,291.73 387.126,281.633C387.77,271.536 376.599,269.603 376.599,269.603C376.599,269.603 263.988,265.379 224.203,152.435C224.203,152.435 219.906,141.833 211.528,145.915C203.15,149.996 207.447,159.019 207.447,159.019C242.119,281.125 374.881,291.3 374.881,291.3Z" style="fill:rgb(223,178,128);stroke:white;stroke-width:0.84px;"/>
                </g>
            </g>
            <g transform="matrix(-0.716511,-0.697576,0.697576,-0.716511,293.744,595.878)">
                <g transform="matrix(1,0,0,1,-32.6534,25.2345)">
                    <path d="M369.725,293.191C369.725,293.191 381.326,293.62 381.97,283.523C382.615,273.427 371.444,271.493 371.444,271.493C371.444,271.493 264.504,267.441 224.718,154.497C224.718,154.497 220.422,143.895 212.044,147.977C203.666,152.059 207.962,161.081 207.962,161.081C242.635,283.188 369.725,293.191 369.725,293.191Z" style="fill:rgb(223,178,128);stroke:white;stroke-width:0.84px;"/>
                </g>
                <g transform="matrix(1,0,0,1,-2.06231,1.89047)">
                    <path d="M368.694,285.411C368.694,285.411 380.295,285.841 380.939,275.744C381.583,265.647 370.413,263.714 370.413,263.714C370.413,263.714 263.473,264.519 223.687,151.575C223.687,151.575 219.391,140.974 211.013,145.055C202.634,149.137 206.931,158.16 206.931,158.16C241.604,280.266 368.694,285.411 368.694,285.411Z" style="fill:rgb(223,178,128);stroke:white;stroke-width:0.84px;"/>
                </g>
                <g transform="matrix(1,0,0,1,-19.2483,14.5861)">
                    <path d="M374.881,291.3C374.881,291.3 386.481,291.73 387.126,281.633C387.77,271.536 376.599,269.603 376.599,269.603C376.599,269.603 263.988,265.379 224.203,152.435C224.203,152.435 219.906,141.833 211.528,145.915C203.15,149.996 207.447,159.019 207.447,159.019C242.119,281.125 374.881,291.3 374.881,291.3Z" style="fill:rgb(223,178,128);stroke:white;stroke-width:0.84px;"/>
                </g>
            </g>
            <g transform="matrix(-0.169255,-0.985572,0.985572,-0.169255,83.6764,544.837)">
                <g transform="matrix(1,0,0,1,-32.6534,25.2345)">
                    <path d="M369.725,293.191C369.725,293.191 381.326,293.62 381.97,283.523C382.615,273.427 371.444,271.493 371.444,271.493C371.444,271.493 264.504,267.441 224.718,154.497C224.718,154.497 220.422,143.895 212.044,147.977C203.666,152.059 207.962,161.081 207.962,161.081C242.635,283.188 369.725,293.191 369.725,293.191Z" style="fill:rgb(223,178,128);stroke:white;stroke-width:0.84px;"/>
                </g>
                <g transform="matrix(1,0,0,1,-2.06231,1.89047)">
                    <path d="M368.694,285.411C368.694,285.411 380.295,285.841 380.939,275.744C381.583,265.647 370.413,263.714 370.413,263.714C370.413,263.714 263.473,264.519 223.687,151.575C223.687,151.575 219.391,140.974 211.013,145.055C202.634,149.137 206.931,158.16 206.931,158.16C241.604,280.266 368.694,285.411 368.694,285.411Z" style="fill:rgb(223,178,128);stroke:white;stroke-width:0.84px;"/>
                </g>
                <g transform="matrix(1,0,0,1,-19.2483,14.5861)">
                    <path d="M374.881,291.3C374.881,291.3 386.481,291.73 387.126,281.633C387.77,271.536 376.599,269.603 376.599,269.603C376.599,269.603 263.988,265.379 224.203,152.435C224.203,152.435 219.906,141.833 211.528,145.915C203.15,149.996 207.447,159.019 207.447,159.019C242.119,281.125 374.881,291.3 374.881,291.3Z" style="fill:rgb(223,178,128);stroke:white;stroke-width:0.84px;"/>
                </g>
            </g>
            <g transform="matrix(0.212232,-0.977219,0.977219,0.212232,-9.06754,453.19)">
                <g transform="matrix(1,0,0,1,-32.6534,25.2345)">
                    <path d="M369.725,293.191C369.725,293.191 381.326,293.62 381.97,283.523C382.615,273.427 371.444,271.493 371.444,271.493C371.444,271.493 264.504,267.441 224.718,154.497C224.718,154.497 220.422,143.895 212.044,147.977C203.666,152.059 207.962,161.081 207.962,161.081C242.635,283.188 369.725,293.191 369.725,293.191Z" style="fill:rgb(223,178,128);stroke:white;stroke-width:0.84px;"/>
                </g>
                <g transform="matrix(1,0,0,1,-2.06231,1.89047)">
                    <path d="M368.694,285.411C368.694,285.411 380.295,285.841 380.939,275.744C381.583,265.647 370.413,263.714 370.413,263.714C370.413,263.714 263.473,264.519 223.687,151.575C223.687,151.575 219.391,140.974 211.013,145.055C202.634,149.137 206.931,158.16 206.931,158.16C241.604,280.266 368.694,285.411 368.694,285.411Z" style="fill:rgb(223,178,128);stroke:white;stroke-width:0.84px;"/>
                </g>
                <g transform="matrix(1,0,0,1,-19.2483,14.5861)">
                    <path d="M374.881,291.3C374.881,291.3 386.481,291.73 387.126,281.633C387.77,271.536 376.599,269.603 376.599,269.603C376.599,269.603 263.988,265.379 224.203,152.435C224.203,152.435 219.906,141.833 211.528,145.915C203.15,149.996 207.447,159.019 207.447,159.019C242.119,281.125 374.881,291.3 374.881,291.3Z" style="fill:rgb(223,178,128);stroke:white;stroke-width:0.84px;"/>
                </g>
            </g>
            <g transform="matrix(0.838738,-0.541024,0.541024,0.838738,-86.1443,179.761)">
                <g transform="matrix(1,0,0,1,-32.6534,25.2345)">
                    <path d="M369.725,293.191C369.725,293.191 381.326,293.62 381.97,283.523C382.615,273.427 371.444,271.493 371.444,271.493C371.444,271.493 264.504,267.441 224.718,154.497C224.718,154.497 220.422,143.895 212.044,147.977C203.666,152.059 207.962,161.081 207.962,161.081C242.635,283.188 369.725,293.191 369.725,293.191Z" style="fill:rgb(223,178,128);stroke:white;stroke-width:0.84px;"/>
                </g>
                <g transform="matrix(1,0,0,1,-2.06231,1.89047)">
                    <path d="M368.694,285.411C368.694,285.411 380.295,285.841 380.939,275.744C381.583,265.647 370.413,263.714 370.413,263.714C370.413,263.714 263.473,264.519 223.687,151.575C223.687,151.575 219.391,140.974 211.013,145.055C202.634,149.137 206.931,158.16 206.931,158.16C241.604,280.266 368.694,285.411 368.694,285.411Z" style="fill:rgb(223,178,128);stroke:white;stroke-width:0.84px;"/>
                </g>
                <g transform="matrix(1,0,0,1,-19.2483,14.5861)">
                    <path d="M374.881,291.3C374.881,291.3 386.481,291.73 387.126,281.633C387.77,271.536 376.599,269.603 376.599,269.603C376.599,269.603 263.988,265.379 224.203,152.435C224.203,152.435 219.906,141.833 211.528,145.915C203.15,149.996 207.447,159.019 207.447,159.019C242.119,281.125 374.881,291.3 374.881,291.3Z" style="fill:rgb(223,178,128);stroke:white;stroke-width:0.84px;"/>
                </g>
            </g>
            <g>
                <g transform="matrix(1,0,0,1,-32.6534,25.2345)">
                    <path d="M369.725,293.191C369.725,293.191 381.326,293.62 381.97,283.523C382.615,273.427 371.444,271.493 371.444,271.493C371.444,271.493 264.504,267.441 224.718,154.497C224.718,154.497 220.422,143.895 212.044,147.977C203.666,152.059 207.962,161.081 207.962,161.081C242.635,283.188 369.725,293.191 369.725,293.191Z" style="fill:rgb(223,178,128);stroke:white;stroke-width:0.84px;"/>
                </g>
                <g transform="matrix(1,0,0,1,-2.06231,1.89047)">
                    <path d="M368.694,285.411C368.694,285.411 380.295,285.841 380.939,275.744C381.583,265.647 370.413,263.714 370.413,263.714C370.413,263.714 263.473,264.519 223.687,151.575C223.687,151.575 219.391,140.974 211.013,145.055C202.634,149.137 206.931,158.16 206.931,158.16C241.604,280.266 368.694,285.411 368.694,285.411Z" style="fill:rgb(223,178,128);stroke:white;stroke-width:0.84px;"/>
                </g>
                <g transform="matrix(1,0,0,1,-19.2483,14.5861)">
                    <path d="M374.881,291.3C374.881,291.3 386.481,291.73 387.126,281.633C387.77,271.536 376.599,269.603 376.599,269.603C376.599,269.603 263.988,265.379 224.203,152.435C224.203,152.435 219.906,141.833 211.528,145.915C203.15,149.996 207.447,159.019 207.447,159.019C242.119,281.125 374.881,291.3 374.881,291.3Z" style="fill:rgb(223,178,128);stroke:white;stroke-width:0.84px;"/>
                </g>
            </g>
            <g transform="matrix(0.615597,-0.788061,0.788061,0.615597,-87.5944,315.514)">
                <g transform="matrix(1,0,0,1,-32.6534,25.2345)">
                    <path d="M369.725,293.191C369.725,293.191 381.326,293.62 381.97,283.523C382.615,273.427 371.444,271.493 371.444,271.493C371.444,271.493 264.504,267.441 224.718,154.497C224.718,154.497 220.422,143.895 212.044,147.977C203.666,152.059 207.962,161.081 207.962,161.081C242.635,283.188 369.725,293.191 369.725,293.191Z" style="fill:rgb(223,178,128);stroke:white;stroke-width:0.84px;"/>
                </g>
                <g transform="matrix(1,0,0,1,-2.06231,1.89047)">
                    <path d="M368.694,285.411C368.694,285.411 380.295,285.841 380.939,275.744C381.583,265.647 370.413,263.714 370.413,263.714C370.413,263.714 263.473,264.519 223.687,151.575C223.687,151.575 219.391,140.974 211.013,145.055C202.634,149.137 206.931,158.16 206.931,158.16C241.604,280.266 368.694,285.411 368.694,285.411Z" style="fill:rgb(223,178,128);stroke:white;stroke-width:0.84px;"/>
                </g>
                <g transform="matrix(1,0,0,1,-19.2483,14.5861)">
                    <path d="M374.881,291.3C374.881,291.3 386.481,291.73 387.126,281.633C387.77,271.536 376.599,269.603 376.599,269.603C376.599,269.603 263.988,265.379 224.203,152.435C224.203,152.435 219.906,141.833 211.528,145.915C203.15,149.996 207.447,159.019 207.447,159.019C242.119,281.125 374.881,291.3 374.881,291.3Z" style="fill:rgb(223,178,128);stroke:white;stroke-width:0.84px;"/>
                </g>
            </g>
        </g>
    </g>
</svg>
